<svg xmlns="http://www.w3.org/2000/svg" width="512" height="512" viewBox="0 0 512 512" data-svgdocument="" id="_Dr3Qt1kx-HLhn3cToSsar" class="fl-svgdocument" x="0" y="0" style="overflow: visible;" xmlns:xlink="http://www.w3.org/1999/xlink"><defs id="_LHHMkNRoo9MC_7T-CFMSH" transform="matrix(1, 0, 0, 1, -0.000002652406692504883, 0.0000027423300252849003)"><linearGradient id="g__eghhcjcgj_5" x1="50%" y1="100%" x2="50%" y2="0%"><stop id="_eghhdnk5b_2" offset="0%" style="stop-color: rgb(26, 199, 121); stop-opacity: 1;"></stop><stop id="_eghhdnk5b_3" offset="100%" style="stop-color: rgb(13, 224, 215); stop-opacity: 1;"></stop></linearGradient></defs><circle id="_I--7Jy77PyWgWFoyRHuqu" cx="88.385" cy="88.385" r="88.385" stroke="none" fill="#212830" transform="matrix(1.252892017364502, 0, 0, 1.252892017364502, 145.2631378173828, 167.92190551757812)"></circle><circle id="_jAQ-8J9KPaWeqQrRN5oYq" cx="88.385" cy="88.385" r="88.385" stroke="none" fill="url(#g__eghhcjcgj_5)" transform="matrix(1.140021800994873, 0, 0, 1.140021800994873, 155.2433624267578, 177.8605194091797)"></circle><g id="_2nRmwolaOQ-lwk4FHDrxG" transform="matrix(1.1103708744049072, 0, 0, 1.1103708744049072, -27.191917419433594, 96.00569915771484)"><path id="_iw9sIJdsuFRqNQq9SdnqR" d="M84.723,59.429c-0.272-0.783-1.13-1.197-1.91-0.922c-8.734,3.049-15.025,4.208-20.017,4.256l0.036-8.597l9.505,3.826   c0.184,0.074,0.374,0.108,0.561,0.108c0.594,0,1.156-0.355,1.392-0.939c0.31-0.769-0.063-1.643-0.831-1.952l-10.612-4.271   l0.02-4.82l8.288,3.255c0.772,0.302,1.642-0.077,1.945-0.848c0.303-0.771-0.077-1.642-0.848-1.944l-9.372-3.681l0.02-4.701   l7.192,3.059c0.765,0.326,1.644-0.031,1.967-0.793c0.324-0.762-0.03-1.643-0.793-1.967l-8.352-3.552l0.015-3.453l4.719,2.241   c0.749,0.354,1.644,0.037,1.998-0.711c0.355-0.749,0.037-1.643-0.711-1.999l-5.992-2.846l0.012-2.823l1.773,0.842   c0.748,0.354,1.644,0.037,1.998-0.711c0.355-0.748,0.037-1.643-0.711-1.999l-3.906-1.855c-0.007-0.003-0.015-0.004-0.022-0.007   c-0.102-0.046-0.208-0.084-0.32-0.107c-0.013-0.003-0.026-0.002-0.04-0.004c-0.083-0.015-0.168-0.026-0.256-0.027   c-0.002,0-0.004,0-0.006,0c-0.012,0-0.022,0.003-0.034,0.003c-0.036,0.001-0.071,0.007-0.108,0.011   c-0.078,0.007-0.154,0.018-0.228,0.037c-0.037,0.009-0.072,0.021-0.108,0.033c-0.074,0.025-0.146,0.056-0.214,0.092   c-0.02,0.011-0.043,0.015-0.063,0.027l-5.119,2.976c-0.716,0.417-0.959,1.334-0.543,2.051c0.278,0.479,0.781,0.747,1.298,0.747   c0.257,0,0.516-0.066,0.753-0.204l2.854-1.659l-0.011,2.687l-6.569,3.819c-0.716,0.417-0.959,1.334-0.543,2.051   c0.278,0.479,0.781,0.747,1.298,0.747c0.257,0,0.516-0.066,0.753-0.204l5.047-2.935l-0.014,3.413l-7.715,5.014l-5.285-4.54   c-0.545-0.468-1.345-0.484-1.908-0.039l-7.483,5.918l-3.246-3.792c-0.502-0.587-1.369-0.697-2.001-0.252l-8.713,6.117   c-0.678,0.476-0.842,1.412-0.366,2.089c0.292,0.416,0.757,0.638,1.229,0.638c0.297,0,0.598-0.088,0.86-0.272l7.598-5.334   l2.284,2.669l-5.009,3.962c-0.649,0.514-0.76,1.457-0.246,2.107c0.296,0.374,0.734,0.569,1.177,0.569   c0.326,0,0.654-0.105,0.93-0.324l13.876-10.976l3.681,3.162l-2.582,1.678c-0.695,0.452-0.892,1.381-0.44,2.075   c0.288,0.442,0.769,0.683,1.259,0.683c0.28,0,0.563-0.078,0.816-0.242l11.268-7.324l-0.019,4.45l-11.198,7.54   c-0.687,0.462-0.869,1.395-0.406,2.082c0.29,0.431,0.763,0.663,1.246,0.663c0.288,0,0.58-0.083,0.836-0.256l9.507-6.402   l-0.019,4.399l-4.977,3.108c-0.702,0.438-0.916,1.364-0.478,2.067c0.438,0.702,1.362,0.916,2.067,0.478l3.373-2.106l-0.033,7.864   c-5.017-0.435-8.711-2.054-12.661-3.791c-6.345-2.79-13.537-5.951-27.441-4.733c-0.825,0.072-1.436,0.8-1.363,1.625   c0.072,0.826,0.804,1.443,1.625,1.363c13.14-1.147,19.663,1.718,25.972,4.491c4.797,2.109,9.442,4.152,16.491,4.152   c5.362-0.001,12.115-1.184,21.382-4.419C84.583,61.067,84.996,60.211,84.723,59.429z" stroke="none" fill="#212830" transform="matrix(1.625974416732788, 0, 0, 1.625974416732788, 174.41664123535156, 80.5884017944336)"></path><path id="_ZUAyl8itlsFFXW_Z4hl6Q" d="M76.403,69.484c-14.75,4.15-20.575,1.831-26.743-0.624c-3.644-1.449-7.411-2.949-13.01-3.324   c-0.827-0.055-1.542,0.57-1.597,1.396c-0.056,0.827,0.57,1.542,1.396,1.598c5.128,0.343,8.673,1.754,12.101,3.118   c3.868,1.539,7.815,3.109,13.853,3.109c3.891,0,8.648-0.652,14.812-2.385c0.797-0.225,1.262-1.053,1.038-1.851   C78.029,69.725,77.198,69.262,76.403,69.484z" stroke="none" fill="#212830" transform="matrix(1.625974416732788, 0, 0, 1.625974416732788, 174.0532684326172, 81.32630920410156)"></path><path id="_DRZkanGDv_QVXGm7-QvRN" d="M72.443,79.153c-11.964,3.812-20.245,0.947-29.012-2.084c-7.895-2.729-16.06-5.553-27.032-3.357   c-0.812,0.162-1.339,0.952-1.177,1.765c0.162,0.812,0.951,1.344,1.765,1.177c10.176-2.032,17.602,0.533,25.463,3.251   c5.82,2.013,11.77,4.07,18.838,4.069c3.673,0,7.649-0.556,12.064-1.961c0.789-0.252,1.226-1.096,0.975-1.885   S73.233,78.903,72.443,79.153z" stroke="none" fill="#212830" transform="matrix(1.625974416732788, 0, 0, 1.625974416732788, 173.82113647460938, 80.6861801147461)"></path><path id="_wREt503DIMwGKRHM35cag" d="M36.823,27.46c3.152,0,5.717-2.564,5.717-5.717s-2.564-5.717-5.717-5.717s-5.717,2.564-5.717,5.717   S33.67,27.46,36.823,27.46z M36.823,19.027c1.498,0,2.717,1.219,2.717,2.717s-1.219,2.717-2.717,2.717   c-1.499,0-2.717-1.219-2.717-2.717S35.324,19.027,36.823,19.027z" stroke="none" fill="#212830" transform="matrix(1.625974416732788, 0, 0, 1.625974416732788, 173.9620361328125, 80.52476501464844)"></path></g><path id="_cLHgutw80oiZGHMZQlBGo" fill="#212830" transform="matrix(1.095313310623169, 0, 0, 1.095313310623169, 254.49118041992188, 116.25598907470703)" text="Ecosyn" text-anchor="middle" font-size="100" letter-spacing="0" side="left" offset="0.5" dx="0" dy="0" space="preserve" href="" font-family="Calligraffitti" font-scale="contain" x="0" y="0" data-fl-textpath="" font-weight="400" font-style="normal" d="M-43.70085937499999-80.47L-43.70085937499999-80.47Q-43.70085937499999-79.88 -43.990859375-79.59L-43.990859375-79.59Q-47.120859374999995-76.46 -51.660859375-74.56Q-56.20085937499999-72.66 -60.500859375000005-71.88L-60.500859375000005-71.88Q-64.700859375-71.09 -68.900859375-70.8Q-73.09085937500001-70.51 -77.290859375-70.36Q-81.490859375-70.21 -85.690859375-69.97Q-89.89085937499999-69.73 -93.990859375-68.85L-93.990859375-68.85Q-94.480859375-60.94 -96.480859375-53.32Q-98.490859375-45.7 -101.020859375-38.28L-101.020859375-38.28Q-98.290859375-38.28 -95.600859375-37.89Q-92.92085937499999-37.5 -90.180859375-37.5L-90.180859375-37.5Q-87.740859375-37.5 -85.350859375-37.74Q-82.960859375-37.99 -80.61085937499999-38.57L-80.61085937499999-38.57Q-80.320859375-38.67 -79.690859375-38.87Q-79.050859375-39.06 -78.42085937499999-39.26Q-77.780859375-39.45 -77.250859375-39.65Q-76.710859375-39.84 -76.61085937499999-39.84L-76.61085937499999-39.84Q-76.12085937500001-39.84 -75.540859375-39.16Q-74.950859375-38.48 -74.950859375-38.09L-74.950859375-38.09Q-74.950859375-37.5 -75.440859375-37.21L-75.440859375-37.21Q-79.15085937500001-34.86 -83.84085937500001-33.79Q-88.520859375-32.71 -92.820859375-32.71L-92.820859375-32.71Q-94.480859375-32.71 -96.040859375-32.91Q-97.61085937499999-33.11 -99.270859375-33.11L-99.270859375-33.11Q-101.320859375-33.11 -102.980859375-32.71L-102.980859375-32.71Q-105.520859375-25.49 -108.640859375-18.55Q-111.770859375-11.62 -115.280859375-4.79L-115.280859375-4.79Q-112.060859375-4.79 -108.890859375-4.3Q-105.710859375-3.81 -102.59085937500001-3.27Q-99.460859375-2.73 -96.290859375-2.25Q-93.11085937499999-1.76 -89.89085937499999-1.76L-89.89085937499999-1.76Q-88.430859375-1.76 -86.960859375-1.86Q-85.500859375-1.95 -84.030859375-2.25L-84.030859375-2.25Q-79.250859375-3.22 -75.880859375-5.66Q-72.510859375-8.11 -69.090859375-11.33L-69.090859375-11.33Q-68.700859375-11.72 -68.310859375-11.72L-68.310859375-11.72Q-67.720859375-11.72 -67.190859375-11.18Q-66.650859375-10.64 -66.650859375-10.16L-66.650859375-10.16Q-66.650859375-9.86 -66.840859375-9.47L-66.840859375-9.47Q-71.240859375-3.32 -77.490859375-0.2Q-83.740859375 2.93 -91.260859375 2.93L-91.260859375 2.93Q-94.290859375 2.93 -97.220859375 2.59Q-100.15085937500001 2.25 -103.080859375 1.81Q-106.000859375 1.37 -108.930859375 0.98Q-111.860859375 0.59 -114.890859375 0.59L-114.890859375 0.59Q-115.67085937499999 0.59 -116.550859375 0.59Q-117.430859375 0.59 -118.210859375 0.68L-118.210859375 0.68Q-118.500859375 1.27 -118.940859375 2.15Q-119.380859375 3.03 -120.17085937499999 3.03L-120.17085937499999 3.03Q-120.850859375 3.03 -121.390859375 2.64Q-121.92085937499999 2.25 -121.92085937499999 1.56L-121.92085937499999 1.56Q-121.92085937499999 1.27 -121.730859375 1.07L-121.730859375 1.07Q-123.390859375 1.37 -124.750859375 1.71Q-126.120859375 2.05 -127.340859375 2.49Q-128.560859375 2.93 -129.830859375 3.47Q-131.100859375 4 -132.670859375 4.59L-132.670859375 4.59L-132.960859375 4.59Q-133.640859375 4.59 -134.130859375 4.05Q-134.620859375 3.52-134.620859375 2.83L-134.620859375 2.83Q-134.620859375 2.34-134.330859375 2.05L-134.330859375 2.05Q-131.490859375-1.07 -127.440859375-2.59Q-123.390859375-4.1 -119.290859375-4.59L-119.290859375-4.59Q-116.450859375-11.13 -113.820859375-17.72Q-111.180859375-24.32 -108.740859375-31.05L-108.740859375-31.05Q-108.930859375-30.96 -109.620859375-30.66Q-110.300859375-30.37 -110.990859375-30.03Q-111.67085937499999-29.69 -112.250859375-29.44Q-112.84085937500001-29.2 -112.940859375-29.2L-112.940859375-29.2Q-113.620859375-29.2 -114.210859375-29.83Q-114.790859375-30.47 -114.790859375-31.05L-114.790859375-31.05L-114.790859375-31.25Q-114.790859375-31.35 -114.700859375-31.35L-114.700859375-31.35Q-113.520859375-33.59 -111.230859375-35.11Q-108.930859375-36.62 -106.59085937500001-37.4L-106.59085937500001-37.4Q-104.050859375-45.02 -102.200859375-52.73Q-100.34085937500001-60.45 -97.700859375-67.97L-97.700859375-67.97Q-101.42085937499999-66.89 -104.780859375-64.99Q-108.150859375-63.09 -110.690859375-60.16L-110.690859375-60.16Q-111.470859375-59.38 -111.960859375-58.5Q-112.450859375-57.62 -113.130859375-56.84L-113.130859375-56.84Q-113.430859375-56.35 -114.110859375-56.35L-114.110859375-56.35Q-114.600859375-56.35 -115.180859375-56.74Q-115.770859375-57.13 -115.770859375-57.81L-115.770859375-57.81Q-115.770859375-58.11 -115.67085937499999-58.2L-115.67085937499999-58.2Q-113.040859375-63.48 -108.890859375-66.75Q-104.740859375-70.02 -99.750859375-71.83Q-94.770859375-73.63 -89.260859375-74.37Q-83.740859375-75.1 -78.470859375-75.39L-78.470859375-75.39Q-69.680859375-75.78 -61.770859375-77.1Q-53.860859375000004-78.42 -45.750859375000005-82.03L-45.750859375000005-82.03Q-45.56085937500001-82.13 -45.260859374999995-82.13L-45.260859374999995-82.13Q-44.580859375-82.13 -44.140859375000005-81.59Q-43.70085937499999-81.05 -43.70085937499999-80.47ZM-31.883828125-46L-31.883828125-46Q-31.883828125-45.02 -32.663828125-44.73L-32.663828125-44.73Q-34.323828125-43.95 -35.933828125000005-43.26Q-37.543828125000005-42.58 -39.113828125-41.5L-39.113828125-41.5Q-45.653828125000004-37.5 -50.343828125-31.35Q-55.033828125-25.2 -56.983828125-17.77L-56.983828125-17.77Q-57.863828125-13.96 -57.863828125-10.06L-57.863828125-10.06Q-57.863828125-8.69 -57.663828125-7.08Q-57.473828125-5.47 -56.933828125-3.91Q-56.393828125-2.34 -55.463828125-1.07Q-54.543828125 0.2 -53.073828125 0.78L-53.073828125 0.78Q-52.973828125 0.88 -52.733828125 0.88Q-52.493828125 0.88 -52.393828125 0.88L-52.393828125 0.88Q-49.953828125 0.88 -47.903828125000004-0.44Q-45.853828125-1.76 -44.193828124999996-3.42L-44.193828124999996-3.42Q-41.553828124999995-6.05 -39.213828125-9.47L-39.213828125-9.47Q-38.723828125-10.16 -38.233828125-10.84Q-37.743828125-11.52 -37.253828125-12.11L-37.253828125-12.11Q-36.963828125-12.6 -36.373828125-12.6L-36.373828125-12.6Q-35.793828125000005-12.6 -35.253828125-12.16Q-34.713828125-11.72 -34.713828125-11.13L-34.713828125-11.13Q-34.713828125-10.94 -35.153828125000004-10.16Q-35.593828125-9.38 -36.183828125000005-8.45Q-36.763828125-7.52 -37.303828124999995-6.69Q-37.843828125-5.86 -38.033828125-5.57L-38.033828125-5.57Q-39.403828125000004-3.52 -40.913828124999995-1.56Q-42.433828125000005 0.39 -44.233828125 1.86Q-46.043828125000005 3.32 -48.293828125000005 4.2Q-50.533828125 5.08 -53.173828125 5.08L-53.173828125 5.08Q-53.763828125 5.08 -54.053828125 4.98L-54.053828125 4.98Q-55.903828125000004 4.69 -57.323828125 3.56Q-58.743828125 2.44 -59.763828125 0.83Q-60.793828125-0.78 -61.373828125-2.59Q-61.963828125-4.39 -62.253828125-6.05L-62.253828125-6.05Q-62.453828125-7.23 -62.543828125-8.4Q-62.643828125-9.57 -62.643828125-10.84L-62.643828125-10.84Q-62.643828125-15.04 -61.673828125-18.85L-61.673828125-18.85Q-60.693828124999996-23.14 -58.793828125-27.34Q-56.883828125-31.54 -54.153828125000004-35.16Q-51.413828125-38.77 -47.903828125000004-41.55Q-44.383828125-44.34 -40.083828125-46L-40.083828125-46Q-38.623828125-46.58 -36.763828125-47.12Q-34.913828124999995-47.66 -33.253828125-47.66L-33.253828125-47.66Q-32.763828125-47.66 -32.323828125-47.07Q-31.883828125-46.48 -31.883828125-46ZM 9.622109375-35.16L 9.622109375-35.16Q 9.622109375-31.45  8.792109375000003-27.05Q 7.962109374999997-22.66  6.302109375000001-18.26Q 4.642109374999997-13.87  2.2421093749999983-9.72Q-0.14789062500000227-5.57 -3.217890624999999-2.34Q-6.297890625000001 0.88 -10.057890624999999 2.78Q-13.817890625 4.69 -18.117890625 4.69L-18.117890625 4.69Q-21.337890625 4.69 -23.677890625 2.98Q-26.027890625 1.27 -27.637890625-1.37Q-29.247890625-4 -30.027890625-7.08Q-30.807890625-10.16 -30.807890625-12.89L-30.807890625-12.89Q-30.807890625-16.11 -29.927890625-19.24L-29.927890625-19.24Q-27.197890625-28.22 -21.137890625-35.25Q-15.087890625-42.29 -6.397890624999999-45.8L-6.397890624999999-45.8Q-6.197890624999999-45.9 -5.907890625-45.9L-5.907890625-45.9Q-5.227890625000001-45.9 -4.877890624999999-45.41Q-4.537890624999999-44.92 -4.537890624999999-44.34L-4.537890624999999-44.34Q-4.537890624999999-43.65 -5.317890625-43.16L-5.317890625-43.16Q-6.687890625000001-42.38 -8.057890624999999-41.65Q-9.427890625-40.92 -10.787890625-39.84L-10.787890625-39.84Q-16.157890625-35.94 -19.967890625000003-30.18Q-23.777890624999998-24.41 -25.727890625-18.07L-25.727890625-18.07Q-26.417890625-16.02 -26.417890625-13.48L-26.417890625-13.48Q-26.417890625-11.43 -25.827890625000002-9.08Q-25.247890625-6.74 -24.067890625-4.74Q-22.897890625000002-2.73 -21.097890624999998-1.42Q-19.287890625-0.1 -16.847890625-0.1L-16.847890625-0.1Q-15.287890625-0.1 -13.867890625000001-0.68Q-12.447890625-1.27 -11.177890625-2.15L-11.177890625-2.15Q-7.467890624999999-4.79 -4.537890624999999-8.98Q-1.6078906250000031-13.18  0.44210937500000114-18.02Q 2.4921093749999983-22.85  3.5621093749999986-27.88Q 4.642109374999997-32.91  4.642109374999997-37.4L 4.642109374999997-37.4L 4.642109374999997-38.57Q 4.442109375000001-41.11  2.932109375000003-42.87Q 1.412109375-44.63 -0.827890625000002-45.7L-0.827890625000002-45.7Q-1.5178906249999997-46 -2.1478906249999987-46.19Q-2.7878906249999993-46.39 -3.367890625000001-46.68L-3.367890625000001-46.68Q-4.347890625000002-47.07 -4.347890625000002-48.05L-4.347890625000002-48.05Q-4.347890625000002-48.73 -3.957890625000001-49.22Q-3.5678906250000004-49.71 -2.877890624999999-49.61L-2.877890624999999-49.61L-2.7878906249999993-49.61Q-0.6378906249999972-49.41  1.4621093749999972-48.63Q 3.5621093749999986-47.85  5.222109375000002-46.48Q 6.882109374999999-45.12  8.012109375000001-43.26Q 9.132109374999999-41.41  9.422109374999998-39.06L 9.422109374999998-39.06Q 9.622109375-38.09  9.622109375-37.16Q 9.622109375-36.23  9.622109375-35.16ZM 54.639140625-46.88L 54.639140625-46.88Q 54.639140625-45.61  53.469140625-45.41L 53.469140625-45.41Q 52.979140625-45.21  52.539140625-45.26Q 52.099140625-45.31  51.609140625-45.21L 51.609140625-45.21Q 50.439140625-45.12  49.319140625-44.92Q 48.189140625-44.73  47.019140625-44.53L 47.019140625-44.53Q 41.749140625-43.46  36.719140625-41.06Q 31.689140625-38.67  27.979140625-34.77L 27.979140625-34.77Q 26.909140625-33.59  26.269140625-32.28Q 25.639140625-30.96  25.639140625-29.3L 25.639140625-29.3Q 25.639140625-28.22  26.809140625-27.64Q 27.979140625-27.05  29.689140625-26.46Q 31.399140625-25.88  33.399140625-25.2Q 35.399140625-24.51  37.109140624999995-23.24Q 38.819140625-21.97  39.989140625000005-19.97Q 41.159140625-17.97  41.159140625-14.84L 41.159140625-14.84Q 41.159140625-11.23  39.799140625-7.91Q 38.429140625-4.59  35.989140625000005-2Q 33.549140625 0.59  30.319140625 2.1Q 27.099140625 3.61  23.489140624999997 3.61L 23.489140624999997 3.61Q 20.069140625 3.61  17.479140625 2.15Q 14.889140625 0.68  13.139140625-1.66Q 11.379140625-4  10.499140625-6.98Q 9.619140625-9.96  9.619140625-13.09L 9.619140625-13.09Q 9.619140625-13.67  9.669140625-14.6Q 9.719140625-15.53  9.859140625-16.41Q 10.009140625-17.29  10.399140625-17.97Q 10.789140625-18.65  11.569140625-18.65L 11.569140625-18.65Q 12.059140625-18.65  12.599140625-18.26Q 13.139140625-17.87  13.139140625-17.29L 13.139140625-17.29Q 13.139140625-15.04  13.669140625-12.3Q 14.209140625-9.57  15.379140625-7.23Q 16.549140625-4.88  18.509140625-3.27Q 20.459140625-1.66  23.289140625-1.66L 23.289140625-1.66Q 25.829140625-1.66  28.169140625-2.78Q 30.519140625-3.91  32.329140625-5.76Q 34.129140625000005-7.62  35.159140625-10.01Q 36.179140625-12.4  36.179140625-14.94L 36.179140625-14.94L 36.179140625-15.92Q 36.179140625-17.58  35.059140625-18.65Q 33.939140625-19.73  32.279140625-20.46Q 30.619140625-21.19  28.659140625-21.88Q 26.709140625-22.56  25.049140625-23.49Q 23.389140625-24.41  22.269140625-25.78Q 21.139140625-27.15  21.139140625-29.39L 21.139140625-29.39Q 21.139140625-31.74  22.169140625-33.89Q 23.189140625-36.04  24.849140625-37.7L 24.849140625-37.7Q 30.619140625-43.26  38.089140625-45.75Q 45.559140625-48.24  53.469140625-48.24L 53.469140625-48.24Q 54.049140625-48.24  54.349140625-47.8Q 54.639140625-47.36  54.639140625-46.88ZM 94.38429687499999-45.9L 94.38429687499999-45.9Q 94.38429687499999-45.51  94.284296875-45.31L 94.284296875-45.31Q 90.574296875-35.35  86.374296875-25.83Q 82.17429687500001-16.31  78.464296875-6.35L 78.464296875-6.35Q 76.61429687500001-1.56  75.19429687499999 3.22Q 73.784296875 8.01  72.414296875 12.99L 72.414296875 12.99Q 72.11429687500001 14.06  71.774296875 14.99Q 71.434296875 15.92  71.044296875 16.99L 71.044296875 16.99Q 69.874296875 20.61  68.604296875 24.07Q 67.334296875 27.54  65.674296875 30.86L 65.674296875 30.86Q 64.014296875 34.18  61.864296875 37.16Q 59.714296875 40.14  56.984296875 42.33Q 54.244296875 44.53  51.024296875 45.85Q 47.804296875 47.17 43.994296875 47.17L 43.994296875 47.17Q 39.994296875 47.17 36.524296875 45.75Q 33.054296875 44.34 30.124296875 41.94Q 27.194296875 39.55 24.904296875 36.28Q 22.604296875 33.01 20.854296875 29.2L 20.854296875 29.2Q 20.654296875 28.81 20.654296875 28.52L 20.654296875 28.52Q 20.554296875 27.73 21.094296875 27.39Q 21.634296875 27.05 22.214296875 27.05L 22.214296875 27.05Q 22.604296875 27.05 22.904296875 27.34Q 23.194296875 27.64 23.384296875 27.93L 23.384296875 27.93Q 24.074296875 29 24.614296875 30.22Q 25.144296875 31.45 25.924296875 32.52L 25.924296875 32.52Q 27.394296875 34.57 29.294296875 36.47Q 31.204296875 38.38 33.494296875 39.79Q 35.794296875 41.21 38.334296875 42.04Q 40.864296875 42.87 43.504296875 42.87L 43.504296875 42.87Q 47.514296875 42.87  50.924296874999996 40.92L 50.924296874999996 40.92Q 55.814296875 37.99  59.034296875 32.81Q 62.254296875 27.64  64.604296875 21.39L 64.604296875 21.39Q 66.844296875 15.33  68.454296875 9.03Q 70.064296875 2.73  71.724296875-2.73L 71.724296875-2.73Q 70.554296875-1.66  68.894296875-0.39Q 67.234296875 0.88  65.474296875 2Q 63.724296875 3.13  61.914296875000005 3.91Q 60.104296875 4.69  58.644296875 4.69L 58.644296875 4.69Q 55.814296875 4.69  53.514296875 2.83Q 51.224296875 0.98  50.634296875000004-2.15L 50.634296875000004-2.15Q 50.144296875-4.1  50.044296875-5.76L 50.044296875-5.76Q 49.854296875-8.79  50.294296875-12.16Q 50.734296875-15.53  51.564296875-18.9Q 52.394296875-22.27  53.464296875-25.44Q 54.544296875-28.61  55.714296875-31.25L 55.714296875-31.25Q 58.154296875-36.91  60.984296875-42.38L 60.984296875-42.38Q 61.574296875-43.46  62.064296875-44.63Q 62.544296875-45.8  63.234296875-46.88L 63.234296875-46.88Q 63.624296875-47.46  64.404296875-47.46L 64.404296875-47.46Q 64.894296875-47.46  65.474296875-46.92Q 66.064296875-46.39  66.164296875-45.8L 66.164296875-45.8L 65.86429687500001-44.34Q 64.994296875-40.23  63.574296875-36.33Q 62.154296875-32.42  60.594296875-28.71L 60.594296875-28.71Q 59.524296875-26.07  58.394296875-23.19Q 57.274296875-20.31  56.444296875-17.38Q 55.614296875-14.45  55.124296875-11.47Q 54.634296875000004-8.5  54.834296875-5.57L 54.834296875-5.57Q 54.934296875-4.69  55.074296875-3.71Q 55.224296875-2.73  55.614296875-1.9Q 56.004296875-1.07  56.594296875-0.54Q 57.174296874999996 0  58.154296875 0L 58.154296875 0Q 59.814296875 0  62.064296875-1.12Q 64.304296875-2.25  66.554296875-3.76Q 68.794296875-5.27  70.804296875-6.93Q 72.804296875-8.59  74.074296875-9.77L 74.074296875-9.77Q 76.61429687500001-16.8  79.544296875-23.49Q 82.474296875-30.18  85.88429687499999-36.62L 85.88429687499999-36.62Q 87.254296875-39.16  88.624296875-41.85Q 89.994296875-44.53  91.554296875-46.97L 91.554296875-46.97Q 91.94429687499999-47.66  92.724296875-47.66L 92.724296875-47.66Q 93.404296875-47.66  93.844296875-47.12Q 94.284296875-46.58  94.38429687499999-45.9ZM 138.136015625-6.54L 138.136015625-6.54Q 138.136015625-5.96  137.646015625-5.66L 137.646015625-5.66Q 136.576015625-4.79  135.106015625-3.71Q 133.646015625-2.64  131.986015625-1.61Q 130.326015625-0.59  128.706015625 0.29Q 127.096015625 1.17  125.826015625 1.66L 125.826015625 1.66Q 123.586015625 2.64  121.62601562500001 2.64L 121.62601562500001 2.64Q 118.70601562499999 2.64  117.386015625 0.54Q 116.066015625-1.56  116.066015625-4.1L 116.066015625-4.1Q 116.066015625-7.13  117.046015625-10.99Q 118.016015625-14.84  119.386015625-18.85Q 120.756015625-22.85  122.266015625-26.71Q 123.776015625-30.57  124.856015625-33.5L 124.856015625-33.5Q 125.92601562499999-36.33  126.806015625-39.21Q 127.68601562500001-42.09  127.976015625-45.21L 127.976015625-45.21Q 126.216015625-45.02  123.196015625-43.26Q 120.166015625-41.5  116.896015625-39.21Q 113.62601562500001-36.91  110.696015625-34.67Q 107.766015625-32.42  106.106015625-31.25L 106.106015625-31.25L 102.586015625-24.22Q 100.246015625-19.63  98.146015625-15.09Q 96.046015625-10.55  94.096015625-5.86L 94.096015625-5.86Q 93.216015625-3.61  92.436015625-1.37Q 91.646015625 0.88  90.676015625 3.13L 90.676015625 3.13Q 90.376015625 3.91  89.596015625 3.91L 89.596015625 3.91Q 89.206015625 3.91 88.576015625 3.42Q 87.936015625 2.93 87.936015625 2.54L 87.936015625 2.54Q 87.936015625 2.44 88.086015625 1.9Q 88.236015625 1.37 88.376015625 0.68Q 88.526015625 0 88.676015625-0.59Q 88.816015625-1.17 88.816015625-1.37L 88.816015625-1.37Q 90.476015625-7.81  92.876015625-14.06Q 95.266015625-20.31  98.196015625-26.37L 98.196015625-26.37Q 99.556015625-29.2  100.826015625-32.08Q 102.096015625-34.96  103.466015625-37.79L 103.466015625-37.79Q 104.056015625-38.87  104.886015625-40.43Q 105.716015625-41.99  106.636015625-43.6Q 107.566015625-45.21  108.546015625-46.63Q 109.526015625-48.05  110.396015625-48.83L 110.396015625-48.83Q 110.796015625-49.22  111.276015625-49.22L 111.276015625-49.22Q 111.666015625-49.22  112.356015625-48.68Q 113.036015625-48.14  113.036015625-47.66L 113.036015625-47.66Q 113.036015625-47.36  112.696015625-46.29Q 112.356015625-45.21  111.866015625-43.99Q 111.37601562500001-42.77  110.936015625-41.65Q 110.496015625-40.53  110.396015625-40.14L 110.396015625-40.14Q 112.056015625-41.7  114.256015625-43.55Q 116.45601562499999-45.41  118.946015625-46.97Q 121.43601562500001-48.54  124.076015625-49.56Q 126.70601562499999-50.59  129.056015625-50.59L 129.056015625-50.59Q 130.416015625-50.59  131.636015625-49.37Q 132.866015625-48.14  133.056015625-46.78L 133.056015625-46.78Q 133.256015625-45.8  133.256015625-45.31L 133.256015625-45.31Q 133.256015625-43.65  132.616015625-41.26Q 131.986015625-38.87  131.396015625-37.21L 131.396015625-37.21Q 130.416015625-34.38  128.566015625-29.74Q 126.70601562499999-25.1  124.856015625-20.21Q 122.996015625-15.33  121.62601562500001-10.84Q 120.266015625-6.35  120.266015625-3.81L 120.266015625-3.81Q 120.266015625-2.73  120.45601562499999-2Q 120.656015625-1.27  121.92601562499999-1.27L 121.92601562499999-1.27Q 123.68601562500001-1.27  126.076015625-2.34Q 128.466015625-3.42  130.716015625-4.74Q 132.956015625-6.05  134.616015625-7.13Q 136.276015625-8.2  136.666015625-8.2L 136.666015625-8.2Q 137.256015625-8.2  137.696015625-7.67Q 138.136015625-7.13  138.136015625-6.54Z"></path><path text="Interactive" fill="#000000" transform="matrix(1, 0, 0, 1, 256.1449890136719, 441.80596923828125)" space="preserve" text-anchor="middle" offset="0.5" font-scale="contain" font-size="48" font-family="Shrikhand" font-weight="400" font-style="normal" data-fl-textpath="" id="_eghhdnk5b_4" d="M-117.89000000000001-31.97Q-116.88000000000002-31.97 -116.33000000000001-31.66Q-115.78000000000002-31.34 -115.78000000000002-30.77L-115.78000000000002-30.77Q-115.78000000000002-30.53 -115.92000000000002-30.14L-115.92000000000002-30.14Q-116.06000000000002-29.81 -116.33000000000001-29.54Q-116.59000000000002-29.28 -116.81000000000002-29.16Q-117.02000000000001-29.04 -117.12000000000002-28.94L-117.12000000000002-28.94Q-117.89000000000001-28.51 -118.37000000000002-27.98Q-118.85000000000002-27.46 -119.18000000000002-26.35L-119.18000000000002-26.35L-124.99000000000001-5.66Q-125.18000000000002-5.04 -125.18000000000002-4.46L-125.18000000000002-4.46Q-125.18000000000002-3.89 -125.02000000000001-3.5Q-124.85000000000002-3.12 -124.51000000000002-2.69L-124.51000000000002-2.69Q-124.08000000000001-2.06 -124.08000000000001-1.68L-124.08000000000001-1.68Q-124.08000000000001-1.58 -124.18000000000002-1.2L-124.18000000000002-1.2Q-124.37000000000002-0.53 -125.04000000000002-0.26Q-125.71000000000002 0 -127.06000000000002 0L-127.06000000000002 0L-138.34 0Q-139.34 0-139.9-0.34Q-140.45000000000002-0.67-140.45000000000002-1.25L-140.45000000000002-1.25Q-140.45000000000002-1.54-140.3-1.87L-140.3-1.87Q-140.11-2.4-139.68-2.69Q-139.25000000000003-2.98 -139.15-3.02L-139.15-3.02Q-138.38000000000002-3.5 -137.9-4.01Q-137.42000000000002-4.51 -137.09-5.66L-137.09-5.66L-131.23000000000002-26.35Q-131.04000000000002-26.98 -131.04000000000002-27.55L-131.04000000000002-27.55Q-131.04000000000002-28.08 -131.21-28.44Q-131.38000000000002-28.8 -131.66000000000003-29.28L-131.66000000000003-29.28Q-132.10000000000002-29.9 -132.10000000000002-30.29L-132.10000000000002-30.29Q-132.10000000000002-30.43 -132.00000000000003-30.82L-132.00000000000003-30.82Q-131.81000000000003-31.44 -131.16000000000003-31.7Q-130.51000000000002-31.97 -129.17000000000002-31.97L-129.17000000000002-31.97L-117.89000000000001-31.97ZM-87.16800000000002-16.08L-90.09800000000001-6.62Q-90.18800000000002-6.43 -90.18800000000002-6.05L-90.18800000000002-6.05Q-90.18800000000002-5.71 -90.02800000000002-5.52Q-89.85800000000002-5.33 -89.56800000000003-5.33L-89.56800000000003-5.33Q-88.98800000000003-5.33 -88.58800000000002-5.83Q-88.17800000000003-6.34 -88.02800000000002-6.34L-88.02800000000002-6.34Q-87.78800000000001-6.34 -87.64800000000002-6.02Q-87.50800000000002-5.71 -87.50800000000002-5.28L-87.50800000000002-5.28Q-87.45800000000003-3.89 -88.41800000000002-2.57Q-89.37800000000001-1.25 -91.22800000000002-0.41Q-93.06800000000003 0.43 -95.66800000000002 0.43L-95.66800000000002 0.43Q-98.82800000000002 0.43 -100.70800000000003-1.03Q-102.57800000000002-2.5 -102.62800000000001-4.94L-102.62800000000001-4.94Q-102.62800000000001-6.72 -101.75800000000002-8.93L-101.75800000000002-8.93L-99.11800000000002-15.84Q-98.87800000000001-16.46 -98.87800000000001-16.85L-98.87800000000001-16.85Q-98.87800000000001-17.47 -99.28800000000003-17.83Q-99.69800000000002-18.19 -100.26800000000003-18.19L-100.26800000000003-18.19Q-101.32800000000002-18.19 -102.28800000000003-17.21Q-103.24800000000002-16.22 -103.67800000000003-14.78L-103.67800000000003-14.78L-106.65800000000002-4.99Q-106.84800000000001-4.46 -106.84800000000001-3.98L-106.84800000000001-3.98Q-106.84800000000001-3.41 -106.60800000000002-3.05Q-106.36800000000002-2.69 -105.93800000000002-2.3L-105.93800000000002-2.3Q-105.59800000000001-2.02 -105.45800000000003-1.78Q-105.30800000000002-1.54 -105.40800000000002-1.2L-105.40800000000002-1.2Q-105.59800000000001-0.58 -106.31800000000003-0.29Q-107.03800000000003 0 -108.57800000000002 0L-108.57800000000002 0L-119.51800000000001 0Q-120.76800000000001 0-121.31800000000003-0.41Q-121.86800000000002-0.82-121.72800000000002-1.49L-121.72800000000002-1.49Q-121.53800000000003-2.06-120.71800000000002-2.5L-120.71800000000002-2.5Q-119.99800000000002-2.88 -119.51800000000001-3.41Q-119.03800000000003-3.94 -118.70800000000003-5.09L-118.70800000000003-5.09L-114.42800000000003-18.96Q-114.33800000000002-19.2 -114.33800000000002-19.63L-114.33800000000002-19.63Q-114.33800000000002-20.16 -114.54800000000002-20.45Q-114.76800000000001-20.74 -115.24800000000002-21.17L-115.24800000000002-21.17Q-115.72800000000002-21.55 -115.91800000000002-21.84Q-116.10800000000002-22.13 -115.96800000000002-22.61L-115.96800000000002-22.61Q-115.67800000000003-23.71 -112.94800000000002-24.55Q-110.20800000000003-25.39 -107.22800000000002-25.39L-107.22800000000002-25.39Q-104.82800000000002-25.39 -103.43800000000002-24.07Q-102.04800000000002-22.75 -102.18800000000002-20.4L-102.18800000000002-20.4Q-100.22800000000002-23.23 -98.01800000000003-24.31Q-95.80800000000002-25.39 -93.21800000000002-25.39L-93.21800000000002-25.39Q-90.28800000000003-25.39 -88.48800000000003-23.62Q-86.68800000000002-21.84 -86.68800000000002-19.01L-86.68800000000002-19.01Q-86.68800000000002-17.52 -87.16800000000002-16.08L-87.16800000000002-16.08ZM-63.980000000000025-24.77Q-63.07000000000002-24.77 -62.57000000000002-24.38Q-62.06000000000003-24 -62.06000000000003-23.33L-62.06000000000003-23.33Q-62.06000000000003-23.14 -62.160000000000025-22.66L-62.160000000000025-22.66Q-62.78000000000003-20.54 -65.04000000000002-20.54L-65.04000000000002-20.54L-67.82000000000002-20.54L-71.42000000000003-8.69Q-71.66000000000003-7.97 -71.66000000000003-7.2L-71.66000000000003-7.2Q-71.66000000000003-6.34 -71.18000000000002-6Q-70.70000000000003-5.66 -69.84000000000003-5.66L-69.84000000000003-5.66Q-69.07000000000002-5.66 -67.92000000000003-5.86L-67.92000000000003-5.86Q-67.34000000000003-6 -66.91000000000003-6L-66.91000000000003-6Q-66.58000000000003-6 -66.41000000000003-5.78Q-66.24000000000002-5.57 -66.24000000000002-5.23L-66.24000000000002-5.23Q-66.19000000000003-4.27 -67.66000000000003-2.9Q-69.12000000000003-1.54 -71.62000000000003-0.55Q-74.11000000000003 0.43 -77.14000000000003 0.43L-77.14000000000003 0.43Q-80.40000000000002 0.43 -82.37000000000003-1.06Q-84.34000000000003-2.54 -84.34000000000003-5.14L-84.34000000000003-5.14Q-84.34000000000003-6.34 -83.95000000000003-7.44L-83.95000000000003-7.44L-80.88000000000002-16.94Q-80.64000000000003-17.76 -80.64000000000003-18.24L-80.64000000000003-18.24Q-80.64000000000003-19.2 -81.10000000000002-19.87Q-81.55000000000003-20.54 -82.37000000000003-21.26L-82.37000000000003-21.26Q-83.09000000000003-21.94 -83.38000000000002-22.39Q-83.66000000000003-22.85 -83.52000000000002-23.47L-83.52000000000002-23.47Q-83.33000000000003-24.1 -82.70000000000003-24.43Q-82.08000000000003-24.77 -80.74000000000002-24.77L-80.74000000000002-24.77L-78.05000000000003-24.77L-75.02000000000002-27.79Q-73.44000000000003-29.38 -72.12000000000003-30Q-70.80000000000003-30.62 -68.69000000000003-30.62L-68.69000000000003-30.62Q-65.66000000000003-30.62 -65.66000000000003-28.32L-65.66000000000003-28.32Q-65.66000000000003-27.6 -65.86000000000003-26.98L-65.86000000000003-26.98L-66.53000000000003-24.77L-63.980000000000025-24.77ZM-48.53000000000003-25.63Q-42.43000000000002-25.63 -39.700000000000024-23.69Q-36.96000000000002-21.74 -36.96000000000002-18.72L-36.96000000000002-18.72Q-36.96000000000002-17.81 -37.15000000000003-17.04L-37.15000000000003-17.04Q-37.870000000000026-13.87 -41.160000000000025-12.5Q-44.450000000000024-11.14 -48.910000000000025-11.14L-48.910000000000025-11.14Q-51.17000000000002-11.14 -53.14000000000003-11.42L-53.14000000000003-11.42Q-53.18000000000003-8.93 -51.79000000000003-7.92Q-50.40000000000003-6.91 -47.90000000000003-6.91L-47.90000000000003-6.91Q-46.75000000000003-6.91 -45.700000000000024-7.18Q-44.64000000000003-7.44 -43.010000000000026-7.97L-43.010000000000026-7.97Q-41.660000000000025-8.45 -41.18000000000002-8.45L-41.18000000000002-8.45Q-40.660000000000025-8.45 -40.660000000000025-7.82L-40.660000000000025-7.82Q-40.61000000000003-6.14 -41.90000000000003-4.3Q-43.200000000000024-2.45 -45.74000000000002-1.15Q-48.29000000000002 0.14 -51.89000000000003 0.14L-51.89000000000003 0.14Q-57.22000000000003 0.14 -60.620000000000026-2.54Q-64.03000000000003-5.23 -64.03000000000003-10.37L-64.03000000000003-10.37Q-64.03000000000003-11.81 -63.65000000000003-13.73L-63.65000000000003-13.73Q-62.450000000000024-19.63 -58.39000000000003-22.63Q-54.340000000000025-25.63 -48.53000000000003-25.63L-48.53000000000003-25.63ZM-52.800000000000026-14.3Q-52.61000000000003-14.26 -52.270000000000024-14.26L-52.270000000000024-14.26Q-50.260000000000026-14.26 -49.200000000000024-16.13Q-48.14000000000003-18 -48.190000000000026-20.3L-48.190000000000026-20.3Q-48.24000000000002-21.65 -48.96000000000002-21.65L-48.96000000000002-21.65Q-49.49000000000002-21.65 -50.21000000000002-20.81Q-50.93000000000003-19.97 -51.620000000000026-18.29Q-52.32000000000002-16.61 -52.800000000000026-14.3L-52.800000000000026-14.3ZM-14.35000000000003-25.39Q-11.660000000000029-25.39 -10.06000000000003-23.76Q-8.450000000000031-22.13 -8.450000000000031-19.73L-8.450000000000031-19.73Q-8.450000000000031-18.82 -8.640000000000029-18.05L-8.640000000000029-18.05Q-9.12000000000003-16.08 -10.46000000000003-15.02Q-11.81000000000003-13.97 -13.680000000000032-13.97L-13.680000000000032-13.97Q-15.500000000000028-13.97 -16.44000000000003-14.83Q-17.38000000000003-15.7 -18.10000000000003-17.14L-18.10000000000003-17.14Q-18.48000000000003-17.95 -18.82000000000003-18.34Q-19.15000000000003-18.72 -19.58000000000003-18.72L-19.58000000000003-18.72Q-20.06000000000003-18.72 -20.42000000000003-18.34Q-20.78000000000003-17.95 -21.07000000000003-16.99L-21.07000000000003-16.99L-24.77000000000003-4.99Q-24.860000000000028-4.75 -24.860000000000028-4.27L-24.860000000000028-4.27Q-24.860000000000028-3.65 -24.50000000000003-3.24Q-24.14000000000003-2.83 -23.52000000000003-2.45L-23.52000000000003-2.45Q-22.94000000000003-2.06 -22.75000000000003-1.82Q-22.56000000000003-1.58 -22.610000000000028-1.2L-22.610000000000028-1.2Q-22.70000000000003-0.58 -23.300000000000033-0.29Q-23.90000000000003 0 -25.340000000000032 0L-25.340000000000032 0L-37.63000000000003 0Q-38.88000000000003 0-39.43000000000003-0.41Q-39.98000000000003-0.82-39.84000000000003-1.49L-39.84000000000003-1.49Q-39.65000000000003-2.06-38.83000000000003-2.5L-38.83000000000003-2.5Q-38.11000000000003-2.88 -37.63000000000003-3.41Q-37.15000000000003-3.94 -36.82000000000003-5.09L-36.82000000000003-5.09L-32.54000000000003-18.96Q-32.45000000000003-19.2 -32.45000000000003-19.63L-32.45000000000003-19.63Q-32.45000000000003-20.16 -32.66000000000003-20.45Q-32.88000000000003-20.74 -33.36000000000003-21.17L-33.36000000000003-21.17Q-33.84000000000003-21.55 -34.03000000000003-21.84Q-34.22000000000003-22.13 -34.08000000000003-22.61L-34.08000000000003-22.61Q-33.79000000000003-23.71 -31.06000000000003-24.55Q-28.32000000000003-25.39 -25.340000000000032-25.39L-25.340000000000032-25.39Q-23.38000000000003-25.39 -22.08000000000003-24.5Q-20.78000000000003-23.62 -20.40000000000003-21.98L-20.40000000000003-21.98Q-18.10000000000003-25.39 -14.35000000000003-25.39L-14.35000000000003-25.39ZM 6.051999999999971-25.39Q 11.57199999999997-25.39  14.88199999999997-23.35Q 18.19199999999997-21.31  18.19199999999997-17.14L 18.19199999999997-17.14Q 18.19199999999997-15.55  17.61199999999997-13.54L 17.61199999999997-13.54L 15.651999999999969-6.91Q 15.601999999999972-6.72  15.601999999999972-6.43L 15.601999999999972-6.43Q 15.601999999999972-5.66  16.22199999999997-5.66L 16.22199999999997-5.66Q 16.80199999999997-5.66  17.21199999999997-6.17Q 17.61199999999997-6.67  17.761999999999972-6.67L 17.761999999999972-6.67Q 18.00199999999997-6.67  18.171999999999972-6.34Q 18.331999999999972-6  18.331999999999972-5.57L 18.331999999999972-5.57Q 18.38199999999997-4.27  17.351999999999972-2.93Q 16.32199999999997-1.58  14.59199999999997-0.72Q 12.86199999999997 0.14  10.801999999999971 0.14L 10.801999999999971 0.14Q 8.301999999999971 0.14  6.531999999999972-0.77Q 4.7519999999999705-1.68  4.0819999999999705-3.46L 4.0819999999999705-3.46Q 2.641999999999971-1.73  0.6719999999999704-0.79Q-1.2980000000000302 0.14 -3.5480000000000294 0.14L-3.5480000000000294 0.14Q-6.098000000000029 0.14 -7.82800000000003-0.84Q-9.54800000000003-1.82 -10.38800000000003-3.38Q-11.22800000000003-4.94-11.22800000000003-6.67L-11.22800000000003-6.67Q-11.22800000000003-7.44 -11.08800000000003-8.16L-11.08800000000003-8.16Q-10.31800000000003-11.47 -7.7480000000000295-13.15Q-5.188000000000029-14.83 -1.6280000000000285-14.83L-1.6280000000000285-14.83Q 2.35199999999997-14.83  6.191999999999972-13.58L 6.191999999999972-13.58L 7.391999999999971-16.75Q 8.011999999999972-18.77  8.011999999999972-19.87L 8.011999999999972-19.87Q 7.971999999999969-21.02  7.2519999999999705-21.6Q 6.531999999999972-22.18  5.04199999999997-22.18L 5.04199999999997-22.18Q 5.331999999999972-21.41  5.331999999999972-20.59L 5.331999999999972-20.59Q 5.331999999999972-18.82  3.981999999999971-17.52Q 2.641999999999971-16.22  0.14199999999997104-16.22L 0.14199999999997104-16.22Q-2.2080000000000286-16.22 -3.52800000000003-17.26Q-4.848000000000029-18.29 -4.848000000000029-19.82L-4.848000000000029-19.82Q-4.848000000000029-22.22 -2.1580000000000297-23.81Q 0.5319999999999698-25.39  6.051999999999971-25.39L 6.051999999999971-25.39ZM 3.36199999999997-10.85Q 2.0119999999999703-10.85  1.1719999999999704-9.82Q 0.33199999999997054-8.78  0.33199999999997054-7.58L 0.33199999999997054-7.58Q 0.33199999999997054-6.82  0.69199999999997-6.34Q 1.0519999999999712-5.86  1.731999999999971-5.86L 1.731999999999971-5.86Q 2.35199999999997-5.86  3.0919999999999703-6.36Q 3.8419999999999703-6.86  4.17199999999997-7.87L 4.17199999999997-7.87L 5.18199999999997-10.7Q 4.3719999999999715-10.85  3.36199999999997-10.85L 3.36199999999997-10.85ZM 36.28399999999996-25.63Q 39.21399999999997-25.63  41.423999999999964-24.79Q 43.633999999999965-23.95  44.853999999999964-22.49Q 46.08399999999996-21.02  46.08399999999996-19.25L 46.08399999999996-19.25Q 46.08399999999996-17.33  44.76399999999997-16.08Q 43.44399999999996-14.83  41.18399999999997-14.83L 41.18399999999997-14.83Q 38.883999999999965-14.83  37.58399999999996-16.01Q 36.28399999999996-17.18  36.28399999999996-19.2L 36.28399999999996-19.2Q 36.28399999999996-20.16  36.57399999999997-21.22L 36.57399999999997-21.22Q 34.563999999999965-20.69  33.00399999999996-19.13Q 31.443999999999967-17.57  30.913999999999966-15.02L 30.913999999999966-15.02Q 30.623999999999967-13.58  30.623999999999967-12.43L 30.623999999999967-12.43Q 30.623999999999967-9.84  32.063999999999965-8.5Q 33.50399999999996-7.15  36.19399999999996-7.15L 36.19399999999996-7.15Q 37.72399999999996-7.15  38.83399999999996-7.46Q 39.93399999999997-7.78  41.08399999999996-8.3L 41.08399999999996-8.3Q 42.04399999999997-8.78  42.483999999999966-8.78L 42.483999999999966-8.78Q 42.76399999999997-8.78  42.86399999999996-8.66Q 42.96399999999997-8.54  42.96399999999997-8.16L 42.96399999999997-8.16Q 43.00399999999996-6.38  41.493999999999964-4.44Q 39.983999999999966-2.5  37.32399999999997-1.18Q 34.65399999999997 0.14  31.343999999999966 0.14L 31.343999999999966 0.14Q 27.883999999999965 0.14  25.223999999999965-1.13Q 22.563999999999965-2.4  21.093999999999966-4.78Q 19.633999999999965-7.15  19.633999999999965-10.32L 19.633999999999965-10.32Q 19.633999999999965-11.81  20.013999999999964-13.63L 20.013999999999964-13.63Q 21.313999999999965-19.58  25.753999999999966-22.61Q 30.193999999999967-25.63  36.28399999999996-25.63L 36.28399999999996-25.63ZM 66.81999999999996-24.77Q 67.72999999999998-24.77  68.22999999999998-24.38Q 68.73999999999997-24  68.73999999999997-23.33L 68.73999999999997-23.33Q 68.73999999999997-23.14  68.63999999999997-22.66L 68.63999999999997-22.66Q 68.01999999999997-20.54  65.75999999999996-20.54L 65.75999999999996-20.54L 62.979999999999976-20.54L 59.37999999999997-8.69Q 59.13999999999997-7.97  59.13999999999997-7.2L 59.13999999999997-7.2Q 59.13999999999997-6.34  59.61999999999997-6Q 60.09999999999997-5.66  60.95999999999997-5.66L 60.95999999999997-5.66Q 61.729999999999976-5.66  62.87999999999997-5.86L 62.87999999999997-5.86Q 63.45999999999997-6  63.88999999999997-6L 63.88999999999997-6Q 64.21999999999997-6  64.38999999999997-5.78Q 64.55999999999997-5.57  64.55999999999997-5.23L 64.55999999999997-5.23Q 64.60999999999997-4.27  63.13999999999997-2.9Q 61.67999999999997-1.54  59.17999999999997-0.55Q 56.68999999999997 0.43  53.65999999999997 0.43L 53.65999999999997 0.43Q 50.39999999999997 0.43  48.42999999999997-1.06Q 46.45999999999997-2.54  46.45999999999997-5.14L 46.45999999999997-5.14Q 46.45999999999997-6.34  46.84999999999997-7.44L 46.84999999999997-7.44L 49.91999999999997-16.94Q 50.15999999999997-17.76  50.15999999999997-18.24L 50.15999999999997-18.24Q 50.15999999999997-19.2  49.699999999999974-19.87Q 49.24999999999997-20.54  48.42999999999997-21.26L 48.42999999999997-21.26Q 47.70999999999997-21.94  47.41999999999997-22.39Q 47.13999999999997-22.85  47.27999999999997-23.47L 47.27999999999997-23.47Q 47.46999999999997-24.1  48.09999999999997-24.43Q 48.71999999999997-24.77  50.059999999999974-24.77L 50.059999999999974-24.77L 52.74999999999997-24.77L 55.77999999999997-27.79Q 57.35999999999997-29.38  58.67999999999997-30Q 59.99999999999997-30.62  62.10999999999997-30.62L 62.10999999999997-30.62Q 65.13999999999997-30.62  65.13999999999997-28.32L 65.13999999999997-28.32Q 65.13999999999997-27.6  64.93999999999997-26.98L 64.93999999999997-26.98L 64.26999999999997-24.77L 66.81999999999996-24.77ZM 78.47999999999998-25.39Q 81.25999999999998-25.39  82.55999999999997-24.34Q 83.85999999999997-23.28  83.85999999999997-21.46L 83.85999999999997-21.46Q 83.85999999999997-20.35  83.51999999999997-19.34L 83.51999999999997-19.34L 79.09999999999997-4.99Q 78.95999999999998-4.42  78.95999999999998-3.98L 78.95999999999998-3.98Q 78.95999999999998-3.36  79.19999999999997-3Q 79.43999999999997-2.64  79.86999999999998-2.3L 79.86999999999998-2.3Q 80.20999999999998-1.97  80.34999999999997-1.75Q 80.49999999999997-1.54  80.39999999999998-1.2L 80.39999999999998-1.2Q 80.15999999999997-0.58  79.43999999999997-0.29Q 78.71999999999997 0  77.22999999999998 0L 77.22999999999998 0L 66.28999999999998 0Q 65.03999999999998 0 64.45999999999997-0.41Q 63.88999999999997-0.82 64.07999999999997-1.49L 64.07999999999997-1.49Q 64.26999999999997-2.06 65.08999999999997-2.5L 65.08999999999997-2.5Q 65.80999999999997-2.88  66.28999999999998-3.41Q 66.76999999999997-3.94  67.09999999999997-5.09L 67.09999999999997-5.09L 71.27999999999997-18.96Q 71.41999999999997-19.39  71.41999999999997-19.68L 71.41999999999997-19.68Q 71.41999999999997-20.21  71.17999999999998-20.52Q 70.93999999999997-20.83  70.45999999999997-21.17L 70.45999999999997-21.17Q 69.97999999999998-21.55  69.78999999999998-21.84Q 69.59999999999997-22.13  69.73999999999997-22.61L 69.73999999999997-22.61Q 70.02999999999997-23.71  72.76999999999997-24.55Q 75.49999999999997-25.39  78.47999999999998-25.39L 78.47999999999998-25.39ZM 81.69999999999997-36Q 83.56999999999996-36  84.81999999999996-34.78Q 86.05999999999997-33.55  86.05999999999997-31.78L 86.05999999999997-31.78Q 86.05999999999997-30.53  85.41999999999997-29.33Q 84.76999999999997-28.13  83.58999999999997-27.38Q 82.41999999999997-26.64  80.97999999999998-26.64L 80.97999999999998-26.64Q 79.14999999999998-26.64  77.92999999999998-27.86Q 76.69999999999997-29.09  76.65999999999997-30.91L 76.65999999999997-30.91Q 76.65999999999997-32.11  77.27999999999997-33.29Q 77.89999999999998-34.46  79.05999999999997-35.23Q 80.20999999999998-36  81.69999999999997-36L 81.69999999999997-36ZM 106.98799999999997-25.39Q 109.53799999999997-25.39  111.21799999999996-23.57Q 112.89799999999997-21.74  112.89799999999997-18.58L 112.89799999999997-18.58Q 112.89799999999997-14.3  109.91799999999998-9.84Q 106.94799999999996-5.38  102.38799999999998-2.47Q 97.82799999999997 0.43  93.50799999999997 0.43L 93.50799999999997 0.43Q 89.37799999999997 0.43  86.80799999999996-1.25Q 84.23799999999997-2.93  84.23799999999997-6.05L 84.23799999999997-6.05Q 84.23799999999997-7.2  84.66799999999996-8.64L 84.66799999999996-8.64L 87.69799999999996-18.96Q 87.78799999999997-19.34  87.78799999999997-19.54L 87.78799999999997-19.54Q 87.78799999999997-20.02  87.54799999999997-20.35Q 87.30799999999996-20.69  86.87799999999997-21.07L 86.87799999999997-21.07Q 86.15799999999997-21.7  86.15799999999997-22.18L 86.15799999999997-22.18Q 86.10799999999998-22.85  86.97799999999997-23.62Q 87.83799999999997-24.38  89.39799999999997-24.89Q 90.95799999999997-25.39  92.92799999999997-25.39L 92.92799999999997-25.39Q 96.14799999999997-25.39  97.94799999999996-23.83Q 99.74799999999996-22.27  99.74799999999996-19.78L 99.74799999999996-19.78Q 99.74799999999996-18.67  99.35799999999998-17.38L 99.35799999999998-17.38L 96.23799999999997-7.1Q 96.09799999999997-6.67  96.09799999999997-6.38L 96.09799999999997-6.38Q 96.09799999999997-5.76  96.52799999999996-5.42Q 96.95799999999997-5.09  97.72799999999997-5.09L 97.72799999999997-5.09Q 98.78799999999997-5.09  100.19799999999996-6.02Q 101.61799999999997-6.96  103.00799999999997-8.71Q 104.39799999999997-10.46  105.26799999999997-12.86L 105.26799999999997-12.86Q 103.34799999999997-14.54  102.54799999999997-16.18Q 101.75799999999997-17.81  101.75799999999997-19.54L 101.75799999999997-19.54Q 101.75799999999997-21.98  103.10799999999998-23.69Q 104.44799999999996-25.39  106.98799999999997-25.39L 106.98799999999997-25.39ZM 128.58999999999997-25.63Q 134.68999999999997-25.63  137.41999999999996-23.69Q 140.15999999999997-21.74  140.15999999999997-18.72L 140.15999999999997-18.72Q 140.15999999999997-17.81  139.96999999999997-17.04L 139.96999999999997-17.04Q 139.24999999999997-13.87  135.95999999999998-12.5Q 132.66999999999996-11.14  128.20999999999998-11.14L 128.20999999999998-11.14Q 125.94999999999996-11.14  123.97999999999996-11.42L 123.97999999999996-11.42Q 123.93999999999997-8.93  125.32999999999997-7.92Q 126.71999999999997-6.91  129.21999999999997-6.91L 129.21999999999997-6.91Q 130.36999999999998-6.91  131.41999999999996-7.18Q 132.47999999999996-7.44  134.10999999999996-7.97L 134.10999999999996-7.97Q 135.45999999999998-8.45  135.93999999999997-8.45L 135.93999999999997-8.45Q 136.45999999999998-8.45  136.45999999999998-7.82L 136.45999999999998-7.82Q 136.50999999999996-6.14  135.21999999999997-4.3Q 133.91999999999996-2.45  131.37999999999997-1.15Q 128.82999999999996 0.14  125.22999999999996 0.14L 125.22999999999996 0.14Q 119.89999999999996 0.14  116.49999999999997-2.54Q 113.08999999999996-5.23  113.08999999999996-10.37L 113.08999999999996-10.37Q 113.08999999999996-11.81  113.46999999999997-13.73L 113.46999999999997-13.73Q 114.66999999999996-19.63  118.72999999999996-22.63Q 122.77999999999997-25.63  128.58999999999997-25.63L 128.58999999999997-25.63ZM 124.31999999999996-14.3Q 124.50999999999996-14.26  124.84999999999997-14.26L 124.84999999999997-14.26Q 126.85999999999996-14.26  127.91999999999996-16.13Q 128.97999999999996-18  128.92999999999995-20.3L 128.92999999999995-20.3Q 128.87999999999997-21.65  128.15999999999997-21.65L 128.15999999999997-21.65Q 127.62999999999997-21.65  126.90999999999997-20.81Q 126.18999999999997-19.97  125.49999999999997-18.29Q 124.79999999999997-16.61  124.31999999999996-14.3L 124.31999999999996-14.3Z"></path></svg>